<svg xmlns="http://www.w3.org/2000/svg" viewBox="0 0 460.34 733.67"><g id="Layer_2" data-name="Layer 2"><g id="Layer_1-2" data-name="Layer 1"><path d="M247.41,82.28h-.67c-18-43.64-41.3-74.95-72.28-74.95-35,0-54,44.3-54,94.93,0,62,33,96.27,75.28,96.27,22,0,42.3-6.33,56.29-33l1.67,1c-13,45.3-49.63,73.28-103.6,73.28-65.95,0-114.58-45.63-114.58-114.92C35.56,49.63,93.85,0,164.8,0c32.31,0,47.3,9.33,58.63,9.33,8.32,0,13.32-2.67,22-9.33Z"/><path d="M370.78,235.83v.67H254.2v-.67c14.32-11.32,18-16.65,18-38.64V42.64c0-22-3.66-27.32-18-38.64V3.33H370.78V4c-14.32,11.32-18,16.65-18,38.64V197.19C352.79,219.18,356.46,224.51,370.78,235.83Z"/><path d="M150.89,248.89c51.3,0,87.28,18.32,87.28,63.28,0,37.65-36,60-76.62,60,36.31,1.67,56,13,66,43.31l8.32,25c7,20.65,12.33,30,31,41v.67H167.55c-8.33-10.66-12.33-21.66-16-36l-12-46.3c-4-15.66-11.33-25-33.31-25H98.6v67.95c0,22,3.66,27.31,18,38.64v.67H0v-.67c14.32-11.33,18-16.66,18-38.64V288.19c0-22-3.67-27.31-18-38.64v-.66ZM98.6,365.8h13c28.64,0,42.64-23.31,42.64-54s-14-54-42.64-54h-13Z"/><path d="M454,327.83h-.67c-18-43.64-41.3-74.95-72.28-74.95-35,0-54,44.31-54,94.94,0,61.95,33,96.26,75.28,96.26,22,0,42.3-6.33,56.29-33l1.67,1c-13,45.31-49.63,73.29-103.6,73.29-65.95,0-114.58-45.64-114.58-114.92,0-75.28,58.29-124.91,129.24-124.91,32.31,0,47.3,9.32,58.63,9.32,8.32,0,13.32-2.66,22-9.32Z"/><path d="M291.79,500.5c14,0,22-1,27.32-3.33l11.32,68.62h-.66c-20.32-34.31-36.31-56.29-80.61-56.29H220.84v97.6h21.32c27,0,39.31-7.66,49.3-38.64h.67v87.27h-.67c-10-30.65-22.32-38.64-49.3-38.64H220.84V724.68h32.65c48,0,63.62-30.31,83.6-62.62h.67L327.1,733.67H122.24V733c14.33-11.33,18-16.66,18-38.64V539.81c0-22-3.66-27.31-18-38.64v-.67Z"/></g></g></svg>