<svg xmlns="http://www.w3.org/2000/svg" viewBox="0 0 127.36 40.57"><defs><style>.cls-1{fill:#614728;}</style></defs><g id="Layer_2" data-name="Layer 2"><g id="Layer_1-2" data-name="Layer 1"><path class="cls-1" d="M2.69,15H0v-.73l2.69-1.16v-.69C2.69,4.16,8.64,0,17.12,0c5.27,0,9.43,1.69,9.43,6,0,3.1-2.63,5-5.42,5A6.13,6.13,0,0,1,17,9.64c1.79-.42,2.79-2.05,2.79-4.9,0-2.21-.69-3.9-2.64-3.9-1.58,0-2.42,1.43-2.42,3.48v9.33h6.22L20.65,15H14.7V34.25c0,3.47,1,4.16,3.74,5.63V40H.53v-.11c2.16-1.68,2.16-2.16,2.16-5.63Z"/><path class="cls-1" d="M47.69,25.55H31.88c0,6.33,3.37,9.59,8,9.59a7.68,7.68,0,0,0,7-3.68l.37.21c-1.79,5.58-6.9,8.85-13,8.85-8,0-14.49-5-14.49-13.65,0-8.48,6.64-13.75,14.65-13.75C43.36,13.12,47.69,18.76,47.69,25.55ZM36.52,24.5c0-6.22-.22-10.54-2.11-10.54-2.16,0-2.48,4.32-2.53,10.54Z"/><path class="cls-1" d="M80.67,38a11.12,11.12,0,0,1-7.27,2.53c-5.06,0-7.48-1.85-8.06-4.74a7.4,7.4,0,0,1-.11-.74c-1,3.47-3.84,5.32-8.32,5.32-4.11,0-8-2.11-8-6.64,0-6.11,5.75-7.17,12.12-8.32l4-.74V18.39c0-2.06-.58-4.32-2.85-4.32-1.74,0-2.9,1.58-2.9,3.79,0,2.43.9,3.48,2.58,3.48a4.49,4.49,0,0,0,1.16-.16c-1.42,2.32-3.9,3.48-7,3.48s-5.69-1.85-5.69-4.74c0-4.38,5-6.8,12.22-6.8,9.59,0,14.28,2.63,14.28,9.38,0,2.42,0,5.53,0,9.59,0,3.74,0,5.85,2.84,5.85a6.24,6.24,0,0,0,1-.06ZM63.6,26c-2.42.58-3.21,2.64-3.21,5.91,0,2.26.58,4.16,2.26,4.16,2,0,2.43-2.21,2.43-4.27V25.61Z"/><path class="cls-1" d="M87.31,16.49c0,2.32,2,2.74,6.54,4.37,6.69,2.38,9.8,4.8,9.8,10.38s-4.27,9.28-11.33,9.28c-3.64,0-6.22-1-8.27-1a4.75,4.75,0,0,0-2.9,1l-.58-9.38h.1c3.38,5.69,7.12,8.48,11.65,8.48,2.32,0,3.84-.89,3.84-3,0-2.42-2.1-2.9-5.69-4.16-6.69-2.32-9.9-5.06-9.9-10.64,0-5.12,4.21-8.75,10-8.75,3.32,0,5.53,1.16,7.48,1.16a4.64,4.64,0,0,0,3.16-1.21V21.5h-.1C98.59,16.81,94.06,14,90.58,14,88.68,14,87.31,14.8,87.31,16.49Z"/><path class="cls-1" d="M127.36,29.82c-.84,5.11-3.58,10.7-10.86,10.7-5.26,0-9.37-3-9.32-9.54l.16-16H105v-.73c6-1.27,11.11-4.43,13.64-9.8h.58v9.22h7.75L126.67,15h-7.48V31.4c0,2.27,1,3.69,3,3.69,2.27,0,3.8-2.05,4.48-5.59Z"/></g></g></svg>