<svg xmlns="http://www.w3.org/2000/svg" viewBox="0 0 104.6 52.58"><defs><style>.cls-1{fill:#b8996e;}</style></defs><g id="Layer_2" data-name="Layer 2"><g id="Layer_1-2" data-name="Layer 1"><path class="cls-1" d="M3.66,20.92a2.31,2.31,0,0,0-.09.61,1.21,1.21,0,0,0,1.37,1.24,4.13,4.13,0,0,0,1.75-.48v.06a5.26,5.26,0,0,1-3.86,1.82A2.53,2.53,0,0,1,0,21.59a3.71,3.71,0,0,1,.13-1l2.26-9a4,4,0,0,0,.19-1.12,2.44,2.44,0,0,0-1.4-2.1V8.28H6.81ZM6.05.73A2.07,2.07,0,0,1,8.22,2.87,2.41,2.41,0,0,1,5.76,5.29,2.07,2.07,0,0,1,3.6,3.15,2.4,2.4,0,0,1,6.05.73Z"/><path class="cls-1" d="M11.91,23.85H8.31l3.06-12.29a3.85,3.85,0,0,0,.16-1.12,2.41,2.41,0,0,0-1.37-2.1V8.28H15.8l-1.28,5.1C16,10.32,18.47,8,21.34,8c2.23,0,3.25,1.5,3.25,3.44a6.91,6.91,0,0,1-.23,1.75l-1.94,7.77a2.31,2.31,0,0,0-.09.61,1.21,1.21,0,0,0,1.36,1.24,4.17,4.17,0,0,0,1.76-.48v.06a5.26,5.26,0,0,1-3.86,1.82,2.52,2.52,0,0,1-2.83-2.58,3.71,3.71,0,0,1,.13-1l1.84-7.29A8.73,8.73,0,0,0,21,11.62,1.42,1.42,0,0,0,19.36,10c-1.88,0-4.49,2-5.66,6.72Z"/><path class="cls-1" d="M31.15,20.51a3.71,3.71,0,0,0-.06.54c0,1,.73,1.56,1.78,1.56a4.33,4.33,0,0,0,3-1.5l.07.1a6.26,6.26,0,0,1-5.29,3c-2.1,0-3.25-1.15-3.25-2.77a4.23,4.23,0,0,1,.16-1L30.35,9.11H28.28l0-.26a10.68,10.68,0,0,0,7-6h.26L34.17,8.28h4.3l-.35.83H34Z"/><path class="cls-1" d="M46.85,8c3.63,0,6.43,2.26,6.43,6.31,0,5.35-4.1,9.9-9.14,9.9-3.63,0-6.4-2.26-6.43-6.31C37.71,12.51,41.82,8,46.85,8Zm0,.61c-2.1,0-3.82,2.73-4.77,6a17.21,17.21,0,0,0-.74,4.56c0,2.36.58,4.43,2.74,4.43s3.86-2.74,4.78-6A17.12,17.12,0,0,0,49.65,13C49.65,10.64,49.05,8.57,46.88,8.57Z"/><path class="cls-1" d="M65.36,20.51a3.81,3.81,0,0,0-.07.54c0,1,.74,1.56,1.79,1.56a4.33,4.33,0,0,0,3-1.5l.07.1a6.28,6.28,0,0,1-5.29,3c-2.1,0-3.25-1.15-3.25-2.77a3.79,3.79,0,0,1,.16-1L64.56,9.11H62.49l0-.26a10.68,10.68,0,0,0,7-6h.26L68.38,8.28h4.3l-.35.83H68.19Z"/><path class="cls-1" d="M75.33,23.85h-3.6L76.85,3.28A4.37,4.37,0,0,0,77,2.1c0-1.08-.6-1.5-1.62-2V0h5.89L77.94,13.38c1.49-3.06,4-5.42,6.78-5.42C87,8,88,9.46,88,11.4a8.22,8.22,0,0,1-.19,1.75l-2,7.77a2.31,2.31,0,0,0-.09.61c0,.82.54,1.24,1.37,1.24a3.91,3.91,0,0,0,1.72-.48l0,.06A5.26,5.26,0,0,1,85,24.17a2.52,2.52,0,0,1-2.84-2.58,3.71,3.71,0,0,1,.13-1l1.85-7.29a9.5,9.5,0,0,0,.22-1.66A1.42,1.42,0,0,0,82.75,10c-1.85,0-4.49,2-5.64,6.72Z"/><path class="cls-1" d="M90.36,17.9C90.36,12.83,94.47,8,100,8c2.77,0,4.62,1.43,4.62,3.44,0,3.53-4.43,5-10.48,5.13A11.07,11.07,0,0,0,94,18c0,3.22,1.66,4.62,4.08,4.62a6.41,6.41,0,0,0,5.09-2.8h.13a7.22,7.22,0,0,1-6.75,4.33A5.88,5.88,0,0,1,90.36,17.9Zm3.82-1.75c4.4-.39,7.39-2.2,7.39-5.71,0-1.11-.54-1.87-1.56-1.87C97.27,8.57,94.82,12.36,94.18,16.15Z"/><path class="cls-1" d="M27.23,44.24a16,16,0,0,0-.76,4.3c0,2.1.89,3.05,2.54,3.05,3.7,0,6-5.6,6-9.2,0-2.26-.86-3.38-2.32-3.38a1.83,1.83,0,0,0-1.85,1.09,3.09,3.09,0,0,1,0-.51c0-1.82,1.08-3.22,2.8-3.22,2.17,0,3.28,1.75,3.28,4.14,0,5.41-3.85,12.07-9.11,12.07a4.62,4.62,0,0,1-4.87-4.24C22,50.83,20,52.58,17.64,52.58A4.28,4.28,0,0,1,13,48.06c0-2.84,2.64-5.61,6-8.73l-1.4.07c-3.12.19-4.07.44-4.84,1.87v-.38c0-2.35,1.21-4.27,3.09-4.27,1.18,0,2.48.83,4,1.09l.7-1.21h.67c-2.77,4.55-4.65,7.77-4.65,10.7,0,2.19,1.05,3.5,2.74,3.5,2,0,3.15-2,3.92-4.49L25.13,40a4.43,4.43,0,0,0,.19-1.12A2.46,2.46,0,0,0,24,36.75v-.06h5.57Z"/><path class="cls-1" d="M47.46,36.37c3.63,0,6.43,2.26,6.43,6.31,0,5.35-4.11,9.9-9.14,9.9-3.63,0-6.4-2.26-6.43-6.31C38.32,40.92,42.42,36.37,47.46,36.37Zm0,.61c-2.1,0-3.82,2.73-4.78,6A17.16,17.16,0,0,0,42,47.55c0,2.35.57,4.42,2.74,4.42s3.85-2.73,4.78-6a17.53,17.53,0,0,0,.76-4.53C50.26,39,49.65,37,47.49,37Z"/><path class="cls-1" d="M64.56,36.37c3.63,0,6.43,2.26,6.43,6.31,0,5.35-4.11,9.9-9.14,9.9-3.63,0-6.4-2.26-6.43-6.31C55.42,40.92,59.53,36.37,64.56,36.37Zm0,.61c-2.1,0-3.82,2.73-4.77,6a17.21,17.21,0,0,0-.74,4.56c0,2.35.58,4.42,2.74,4.42s3.85-2.73,4.78-6a17.12,17.12,0,0,0,.76-4.53C67.36,39,66.76,37,64.59,37Z"/><path class="cls-1" d="M72.43,47c0-5.44,3.69-10.6,8.69-10.6a4.17,4.17,0,0,1,4.33,3.57l2-8.25a6.92,6.92,0,0,0,.16-1.18c0-1.08-.61-1.5-1.63-2v-.06h5.86L86.73,49.33a2,2,0,0,0-.1.61c0,.82.58,1.24,1.4,1.24a4,4,0,0,0,1.72-.48l0,.06a5.29,5.29,0,0,1-3.85,1.82A2.52,2.52,0,0,1,83.1,50a9.35,9.35,0,0,1,.28-1.72c-1.24,2.29-3.15,4.33-5.95,4.33C74.34,52.58,72.43,50.38,72.43,47ZM79,50.89c2.29,0,4.27-2.26,5.06-5.38l.73-2.83A6.09,6.09,0,0,0,85,40.89a3,3,0,0,0-3-3.31c-3.51,0-6,5.22-6,9.52C76.09,49.52,77.05,50.89,79,50.89Z"/><path class="cls-1" d="M99.18,36.37c2.84,0,5.07,1.27,5.07,3.12a1.94,1.94,0,0,1-2.11,2,2.05,2.05,0,0,1-1.56-.66c.74-.07,1.18-.77,1.18-1.66,0-1.4-1-2.23-2.77-2.23S95.77,38,95.77,39.59c0,1.27.77,2,2.9,3.21,2.8,1.63,4.08,2.71,4.08,4.68,0,3-3.06,5.1-6.66,5.1-3.34,0-5.7-1.5-5.7-3.5A2.05,2.05,0,0,1,92.59,47a2.73,2.73,0,0,1,1.75.64A1.51,1.51,0,0,0,93,49.3C93,50.89,94.25,52,96.22,52s3.63-1.18,3.63-2.9c0-1.24-.83-2.13-2.93-3.28C94.56,44.59,93,43.38,93,41.27,93,38.5,95.77,36.37,99.18,36.37Z"/></g></g></svg>