<svg xmlns="http://www.w3.org/2000/svg" viewBox="0 0 1005.32 68.83"><defs><style>.cls-1{fill:#614728;}</style></defs><g id="Layer_2" data-name="Layer 2"><g id="Layer_1-2" data-name="Layer 1"><path class="cls-1" d="M62.62,1c4,0,6.3-.28,7.83-.95l3.24,24.44H73.5C64.24,10.21,60.33,3.53,50.4,3.53h-2v53c0,6.3,1.05,7.83,5.15,11.07v.2H20.14v-.2c4.11-3.24,5.16-4.77,5.16-11.07v-53h-2c-9.93,0-13.84,6.68-23.1,20.91H0L3.25,0c1.52.67,3.81,1,7.82,1Z"/><path class="cls-1" d="M122.29,1c14.7,0,25,5.25,25,18.14,0,10.79-10.31,17.18-22,17.18,10.41.48,16,3.73,18.9,12.41l2.39,7.16c2,5.92,3.53,8.59,8.87,11.74v.2H127.06c-2.39-3.06-3.53-6.21-4.58-10.31L119,44.2c-1.15-4.49-3.25-7.16-9.55-7.16H107.3V56.51c0,6.3,1,7.83,5.15,11.07v.2H79v-.2c4.11-3.24,5.16-4.77,5.16-11.07V12.22c0-6.3-1-7.83-5.16-11.08V1Zm-15,33.51H111c8.21,0,12.22-6.68,12.22-15.46S119.23,3.53,111,3.53H107.3Z"/><path class="cls-1" d="M172.6,67.78H155.13v-.2c3.43-2.48,6.11-5.15,8.87-10.88L191.5,0H192L220.9,57.08c2.86,5.73,4.58,8,7.73,10.5v.2H193v-.2c2.77-1.81,3.82-3.34,3.82-5.53a11.87,11.87,0,0,0-1.33-5.25L192,49.54H170.88L168,55.65A11.08,11.08,0,0,0,167,60c0,3.06,1.72,5.73,5.64,7.54Zm-.39-21.2h18.33l-9.35-19.09Z"/><path class="cls-1" d="M294.21,15.75v52h-6.49l-46.2-56.42V51.93c0,8.11,2.1,12.79,8.31,15.65v.2H231.21v-.2c5.16-3.24,7.06-7.54,7.06-14.6V12.22c0-6.3-1.05-7.83-5.15-11.08V1h30.17L291,34.17V16.8c0-8.11-2.1-12.79-8.31-15.66V1h18.62v.19C296.12,4.39,294.21,8.69,294.21,15.75Z"/><path class="cls-1" d="M322.19,10.6c0,7.25,6.68,9.73,14.41,12.31,10.41,3.53,22.72,7.35,22.72,23.86,0,13.65-12.22,22-27.21,22-7.82,0-13.36-2.39-17.56-2.39a12.29,12.29,0,0,0-7.06,2.39l-2-22.72h.19c6.87,12.32,17,21,26.35,21,7.54,0,11.74-3.53,11.74-9.83,0-9-9.74-11.07-19.38-14.51C315.12,39.42,306,34.84,306,21.38,306,8.3,316.08,0,332.4,0c7,0,11.93,2.39,16.23,2.39,2,0,4.1-1.25,5.73-2.39l.38,19.19h-.19C347.86,8.59,342.14,1.72,332.4,1.72,326.39,1.72,322.19,5.25,322.19,10.6Z"/><path class="cls-1" d="M393.69,56.51c0,6.3,1.62,7.83,7.06,11.07v.2H365.43v-.2c4.11-3.24,5.16-4.77,5.16-11.07V12.22c0-6.3-1-7.83-5.16-11.08V1h47.44c4,0,6.3-.28,7.83-.95L424,19.66h-.19c-5.83-9.83-10.41-16.13-23.1-16.13h-7V33.31h6.68c7.73,0,11.26-2.19,14.13-11.07h.19v25h-.19c-2.87-8.78-6.4-11.07-14.13-11.07h-6.68Z"/><path class="cls-1" d="M464.33,68.73c-20.81,0-35.13-14.32-35.13-34.36S443.52,0,464.33,0s35.13,14.32,35.13,34.37S485.14,68.73,464.33,68.73Zm0-67C455.55,1.72,454,11.93,454,34.37S455.55,67,464.33,67s10.31-10.21,10.31-32.64S473.11,1.72,464.33,1.72Z"/><path class="cls-1" d="M549.2,1c14.7,0,25,5.25,25,18.14,0,10.79-10.31,17.18-22,17.18,10.41.48,16,3.73,18.9,12.41l2.39,7.16c2,5.92,3.53,8.59,8.88,11.74v.2H554c-2.39-3.06-3.53-6.21-4.58-10.31L546,44.2c-1.14-4.49-3.24-7.16-9.54-7.16h-2.2V56.51c0,6.3,1,7.83,5.15,11.07v.2H506v-.2c4.11-3.24,5.16-4.77,5.16-11.07V12.22c0-6.3-1.05-7.83-5.16-11.08V1Zm-15,33.51h3.72c8.21,0,12.22-6.68,12.22-15.46s-4-15.47-12.22-15.47h-3.72Z"/><path class="cls-1" d="M601.89,67.58v.2H583.28v-.2c5.15-3.24,7.06-7.54,7.06-14.6V12.22c0-6.3-1.05-7.83-5.15-11.08V1h29l14.32,35.32L643,1h26.82v.19c-4.11,3.25-5.16,4.78-5.16,11.08V56.51c0,6.3,1,7.83,5.16,11.07v.2H636.45v-.2c4.1-3.24,5.15-4.77,5.15-11.07v-45L618.22,68.83h-.39L593.59,11.36V51.93C593.59,60,595.69,64.72,601.89,67.58Z"/><path class="cls-1" d="M691.82,67.78H674.35v-.2c3.44-2.48,6.11-5.15,8.88-10.88L710.72,0h.48l28.92,57.08c2.86,5.73,4.58,8,7.73,10.5v.2h-35.6v-.2c2.76-1.81,3.82-3.34,3.82-5.53a11.89,11.89,0,0,0-1.34-5.25l-3.53-7.26H690.1l-2.86,6.11a10.91,10.91,0,0,0-1,4.39c0,3.06,1.72,5.73,5.63,7.54Zm-.38-21.2h18.32l-9.35-19.09Z"/><path class="cls-1" d="M804.08,1c4,0,6.3-.28,7.83-.95l3.25,24.44H815c-9.26-14.23-13.17-20.91-23.1-20.91h-2v53c0,6.3,1,7.83,5.15,11.07v.2H761.6v-.2c4.11-3.24,5.16-4.77,5.16-11.07v-53h-2c-9.92,0-13.84,6.68-23.1,20.91h-.19L744.71,0c1.52.67,3.81,1,7.82,1Z"/><path class="cls-1" d="M853.91,67.58v.2H820.5v-.2c4.11-3.24,5.16-4.77,5.16-11.07V12.22c0-6.3-1-7.83-5.16-11.08V1h33.41v.19c-4.1,3.25-5.15,4.78-5.15,11.08V56.51C848.76,62.81,849.81,64.34,853.91,67.58Z"/><path class="cls-1" d="M895.54,68.73c-20.82,0-35.13-14.32-35.13-34.36S874.72,0,895.54,0s35.12,14.32,35.12,34.37S916.34,68.73,895.54,68.73Zm0-67c-8.79,0-10.31,10.21-10.31,32.65S886.75,67,895.54,67s10.3-10.21,10.3-32.64S904.32,1.72,895.54,1.72Z"/><path class="cls-1" d="M998.25,15.75v52h-6.49l-46.2-56.42V51.93c0,8.11,2.1,12.79,8.3,15.65v.2H935.25v-.2c5.15-3.24,7.06-7.54,7.06-14.6V12.22c0-6.3-1-7.83-5.15-11.08V1h30.16L995,34.17V16.8c0-8.11-2.1-12.79-8.31-15.66V1h18.62v.19C1000.16,4.39,998.25,8.69,998.25,15.75Z"/></g></g></svg>