<svg xmlns="http://www.w3.org/2000/svg" viewBox="0 0 1008.13 667.85"><defs><style>.cls-1{fill:#614728;}</style></defs><g id="Layer_2" data-name="Layer 2"><g id="Layer_1-2" data-name="Layer 1"><path class="cls-1" d="M63.27,9.26c4,0,6.37-2.78,7.91-9.26l3.28,237.13h-.19C64.91,99.11,61,34.27,50.93,34.27h-2V548.36c0,61.14,1.06,76,5.21,107.45v1.85H20.35v-1.85c4.15-31.49,5.21-46.31,5.21-107.45V34.27h-2c-10,0-14,64.84-23.34,202.86H0L3.28,0c1.54,6.48,3.86,9.26,7.91,9.26Z"/><path class="cls-1" d="M123,9.26c14.85,0,25.27,51,25.27,176,0,104.67-10.42,166.73-22.19,166.73,10.52,4.63,16.21,36.12,19.1,120.42l2.41,69.47c2,57.43,3.57,83.36,9,113.93v1.85H127.79c-2.41-29.64-3.57-60.21-4.63-100l-3.47-128.75c-1.16-43.54-3.28-69.47-9.65-69.47h-2.21v189c0,61.14,1.06,76,5.2,107.45v1.85H79.28v-1.85c4.14-31.49,5.2-46.31,5.2-107.45V118.56c0-61.13-1.06-75.95-5.2-107.44V9.26ZM107.83,334.39h3.76c8.29,0,12.34-64.84,12.34-150.06S119.88,34.27,111.59,34.27h-3.76Z"/><path class="cls-1" d="M173.21,657.66H155.56v-1.85c3.48-24.08,6.18-50,9-105.6L192.31,0h.48L222,553.92c2.89,55.58,4.63,77.81,7.81,101.89v1.85h-36v-1.85c2.8-17.6,3.86-32.42,3.86-53.73,0-18.52-.48-32.41-1.35-50.94l-3.57-70.4H171.48L168.58,540c-.67,14.82-1.06,28.72-1.06,42.61,0,29.64,1.74,55.58,5.69,73.18ZM172.83,452h18.52l-9.46-185.26Z"/><path class="cls-1" d="M295.51,152.84V657.66H289L242.27,110.23V503.9c0,78.73,2.12,124.12,8.39,151.91v1.85H231.85v-1.85c5.21-31.49,7.14-73.18,7.14-141.72V118.56c0-61.13-1.06-75.95-5.21-107.44V9.26h30.48l28,322.35V163c0-78.74-2.12-124.13-8.39-151.91V9.26h18.8v1.86C297.44,42.61,295.51,84.29,295.51,152.84Z"/><path class="cls-1" d="M323.18,102.82c0,70.4,6.75,94.48,14.57,119.49,10.51,34.27,22.95,71.32,22.95,231.57,0,132.46-12.34,213-27.49,213-7.9,0-13.5-23.15-17.74-23.15-2.61,0-4.83,8.33-7.14,23.15l-2-220.45h.2c6.94,119.49,17.17,203.78,26.62,203.78,7.62,0,11.86-34.27,11.86-95.41,0-87.07-9.84-107.44-19.58-140.79-9.35-31.49-18.61-76-18.61-206.56C306.79,80.59,317,0,333.5,0c7,0,12.06,23.16,16.4,23.16,2,0,4.15-12,5.79-23.16l.38,186.18h-.19C349.13,83.37,343.34,16.67,333.5,16.67,327.43,16.67,323.18,51,323.18,102.82Z"/><path class="cls-1" d="M394.84,548.36c0,61.14,1.64,76,7.14,107.45v1.85H366.29v-1.85c4.15-31.49,5.21-46.31,5.21-107.45V118.56c0-61.13-1.06-75.95-5.21-107.44V9.26h47.94c4,0,6.36-2.78,7.91-9.26l3.28,190.81h-.2c-5.88-95.4-10.51-156.54-23.34-156.54h-7v289h6.75c7.82,0,11.38-21.3,14.28-107.45h.19V458.51h-.19c-2.9-85.22-6.46-107.45-14.28-107.45h-6.75Z"/><path class="cls-1" d="M465.63,666.92c-21,0-35.49-138.94-35.49-333.46S444.61,0,465.63,0s35.5,138.94,35.5,333.46S486.66,666.92,465.63,666.92Zm0-650.25c-8.87,0-10.42,99.12-10.42,316.79s1.55,316.79,10.42,316.79,10.42-99.11,10.42-316.79S474.5,16.67,465.63,16.67Z"/><path class="cls-1" d="M550.79,9.26c14.86,0,25.27,51,25.27,176,0,104.67-10.41,166.73-22.18,166.73,10.51,4.63,16.2,36.12,19.1,120.42l2.41,69.47c2,57.43,3.57,83.36,9,113.93v1.85H555.61c-2.41-29.64-3.56-60.21-4.63-100l-3.47-128.75c-1.15-43.54-3.28-69.47-9.64-69.47h-2.22v189c0,61.14,1.06,76,5.21,107.45v1.85H507.1v-1.85c4.15-31.49,5.21-46.31,5.21-107.45V118.56c0-61.13-1.06-75.95-5.21-107.44V9.26ZM535.65,334.39h3.76c8.3,0,12.35-64.84,12.35-150.06s-4-150.06-12.35-150.06h-3.76Z"/><path class="cls-1" d="M603.45,655.81v1.85H584.64v-1.85c5.21-31.49,7.14-73.18,7.14-141.72V118.56c0-61.13-1.06-75.95-5.21-107.44V9.26h29.32L630.36,352,645,9.26h27.1v1.86c-4.15,31.49-5.21,46.31-5.21,107.44v429.8c0,61.14,1.06,76,5.21,107.45v1.85H638.36v-1.85c4.15-31.49,5.21-46.31,5.21-107.45V111.15l-23.63,556.7h-.39L595.06,110.23V503.9C595.06,582.63,597.18,628,603.45,655.81Z"/><path class="cls-1" d="M693.72,657.66H676.07v-1.85c3.47-24.08,6.17-50,9-105.6L712.82,0h.48l29.22,553.92c2.9,55.58,4.63,77.81,7.82,101.89v1.85h-36v-1.85c2.8-17.6,3.86-32.42,3.86-53.73,0-18.52-.48-32.41-1.35-50.94l-3.57-70.4H692L689.09,540c-.68,14.82-1.06,28.72-1.06,42.61,0,29.64,1.73,55.58,5.69,73.18ZM693.33,452h18.52L702.4,266.77Z"/><path class="cls-1" d="M806.56,9.26c4.05,0,6.37-2.78,7.91-9.26l3.28,237.13h-.19c-9.36-138-13.31-202.86-23.34-202.86h-2V548.36c0,61.14,1.06,76,5.21,107.45v1.85H763.64v-1.85c4.15-31.49,5.21-46.31,5.21-107.45V34.27h-2c-10,0-14,64.84-23.34,202.86h-.19L746.57,0c1.54,6.48,3.86,9.26,7.91,9.26Z"/><path class="cls-1" d="M856.32,655.81v1.85H822.57v-1.85c4.14-31.49,5.2-46.31,5.2-107.45V118.56c0-61.13-1.06-75.95-5.2-107.44V9.26h33.75v1.86c-4.14,31.49-5.2,46.31-5.2,107.44v429.8C851.12,609.5,852.18,624.32,856.32,655.81Z"/><path class="cls-1" d="M897.79,666.92c-21,0-35.49-138.94-35.49-333.46S876.77,0,897.79,0s35.5,138.94,35.5,333.46S918.82,666.92,897.79,666.92Zm0-650.25c-8.87,0-10.41,99.12-10.41,316.79s1.54,316.79,10.41,316.79,10.42-99.11,10.42-316.79S906.67,16.67,897.79,16.67Z"/><path class="cls-1" d="M1001,152.84V657.66h-6.56L947.75,110.23V503.9c0,78.73,2.12,124.12,8.39,151.91v1.85H937.33v-1.85c5.21-31.49,7.14-73.18,7.14-141.72V118.56c0-61.13-1.06-75.95-5.21-107.44V9.26h30.48l28,322.35V163c0-78.74-2.12-124.13-8.39-151.91V9.26h18.81v1.86C1002.92,42.61,1001,84.29,1001,152.84Z"/></g></g></svg>